<mxfile host="app.diagrams.net" modified="2022-04-15T12:09:39.752Z" agent="5.0 (Windows NT 10.0; Win64; x64) AppleWebKit/537.36 (KHTML, like Gecko) Chrome/100.0.4896.88 Safari/537.36" etag="eE1y7rCD9gEjYuZNWSka" version="16.0.3" type="github">
  <diagram id="qHXF3pWEWNpUPseSAIZG" name="Page-1">
    <mxGraphModel dx="1191" dy="657" grid="1" gridSize="10" guides="1" tooltips="1" connect="1" arrows="1" fold="1" page="1" pageScale="1" pageWidth="1169" pageHeight="1654" math="0" shadow="0">
      <root>
        <mxCell id="0" />
        <mxCell id="1" parent="0" />
        <mxCell id="_iQYgO6K-9xI_DNpRnXB-9" value="" style="edgeStyle=orthogonalEdgeStyle;rounded=0;orthogonalLoop=1;jettySize=auto;html=1;" edge="1" parent="1" source="_iQYgO6K-9xI_DNpRnXB-1" target="_iQYgO6K-9xI_DNpRnXB-3">
          <mxGeometry relative="1" as="geometry" />
        </mxCell>
        <mxCell id="_iQYgO6K-9xI_DNpRnXB-1" value="开始" style="rounded=1;whiteSpace=wrap;html=1;" vertex="1" parent="1">
          <mxGeometry x="110" y="10" width="100" height="40" as="geometry" />
        </mxCell>
        <mxCell id="_iQYgO6K-9xI_DNpRnXB-2" value="初始化CH372和SJA1000,&lt;br&gt;SJA1000进入复位模式" style="rounded=1;whiteSpace=wrap;html=1;" vertex="1" parent="1">
          <mxGeometry x="70" y="80" width="180" height="40" as="geometry" />
        </mxCell>
        <mxCell id="_iQYgO6K-9xI_DNpRnXB-10" value="" style="edgeStyle=orthogonalEdgeStyle;rounded=0;orthogonalLoop=1;jettySize=auto;html=1;" edge="1" parent="1" source="_iQYgO6K-9xI_DNpRnXB-3" target="_iQYgO6K-9xI_DNpRnXB-4">
          <mxGeometry relative="1" as="geometry" />
        </mxCell>
        <mxCell id="_iQYgO6K-9xI_DNpRnXB-17" style="edgeStyle=orthogonalEdgeStyle;rounded=0;orthogonalLoop=1;jettySize=auto;html=1;exitX=0;exitY=0.5;exitDx=0;exitDy=0;fontSize=10;" edge="1" parent="1" source="_iQYgO6K-9xI_DNpRnXB-3">
          <mxGeometry relative="1" as="geometry">
            <mxPoint x="160" y="140" as="targetPoint" />
          </mxGeometry>
        </mxCell>
        <mxCell id="_iQYgO6K-9xI_DNpRnXB-3" value="等待CH372中断" style="rhombus;whiteSpace=wrap;html=1;" vertex="1" parent="1">
          <mxGeometry x="105" y="160" width="110" height="70" as="geometry" />
        </mxCell>
        <mxCell id="_iQYgO6K-9xI_DNpRnXB-11" value="" style="edgeStyle=orthogonalEdgeStyle;rounded=0;orthogonalLoop=1;jettySize=auto;html=1;" edge="1" parent="1" source="_iQYgO6K-9xI_DNpRnXB-4" target="_iQYgO6K-9xI_DNpRnXB-5">
          <mxGeometry relative="1" as="geometry" />
        </mxCell>
        <mxCell id="_iQYgO6K-9xI_DNpRnXB-4" value="进入中断，锁定CH372缓冲区并查询其中断状态" style="rounded=1;whiteSpace=wrap;html=1;" vertex="1" parent="1">
          <mxGeometry x="85" y="260" width="150" height="60" as="geometry" />
        </mxCell>
        <mxCell id="_iQYgO6K-9xI_DNpRnXB-12" value="" style="edgeStyle=orthogonalEdgeStyle;rounded=0;orthogonalLoop=1;jettySize=auto;html=1;" edge="1" parent="1" source="_iQYgO6K-9xI_DNpRnXB-5" target="_iQYgO6K-9xI_DNpRnXB-6">
          <mxGeometry relative="1" as="geometry" />
        </mxCell>
        <mxCell id="_iQYgO6K-9xI_DNpRnXB-22" style="edgeStyle=orthogonalEdgeStyle;rounded=0;orthogonalLoop=1;jettySize=auto;html=1;exitX=0.5;exitY=1;exitDx=0;exitDy=0;fontSize=10;" edge="1" parent="1" source="_iQYgO6K-9xI_DNpRnXB-5" target="_iQYgO6K-9xI_DNpRnXB-21">
          <mxGeometry relative="1" as="geometry" />
        </mxCell>
        <mxCell id="_iQYgO6K-9xI_DNpRnXB-5" value="是否接受完数据后的中断" style="rhombus;whiteSpace=wrap;html=1;" vertex="1" parent="1">
          <mxGeometry x="82.5" y="350" width="155" height="70" as="geometry" />
        </mxCell>
        <mxCell id="_iQYgO6K-9xI_DNpRnXB-13" value="" style="edgeStyle=orthogonalEdgeStyle;rounded=0;orthogonalLoop=1;jettySize=auto;html=1;" edge="1" parent="1" source="_iQYgO6K-9xI_DNpRnXB-6" target="_iQYgO6K-9xI_DNpRnXB-8">
          <mxGeometry relative="1" as="geometry" />
        </mxCell>
        <mxCell id="_iQYgO6K-9xI_DNpRnXB-6" value="其他相应的处理" style="rounded=1;whiteSpace=wrap;html=1;" vertex="1" parent="1">
          <mxGeometry x="280" y="367.5" width="90" height="35" as="geometry" />
        </mxCell>
        <mxCell id="_iQYgO6K-9xI_DNpRnXB-14" style="edgeStyle=orthogonalEdgeStyle;rounded=0;orthogonalLoop=1;jettySize=auto;html=1;" edge="1" parent="1" source="_iQYgO6K-9xI_DNpRnXB-8">
          <mxGeometry relative="1" as="geometry">
            <mxPoint x="160" y="130" as="targetPoint" />
            <Array as="points">
              <mxPoint x="345" y="130" />
            </Array>
          </mxGeometry>
        </mxCell>
        <mxCell id="_iQYgO6K-9xI_DNpRnXB-8" value="退出中断" style="rounded=1;whiteSpace=wrap;html=1;" vertex="1" parent="1">
          <mxGeometry x="282.5" y="210" width="85" height="30" as="geometry" />
        </mxCell>
        <mxCell id="_iQYgO6K-9xI_DNpRnXB-16" value="&lt;font style=&quot;font-size: 10px&quot;&gt;N&lt;/font&gt;" style="text;strokeColor=none;fillColor=none;html=1;fontSize=24;fontStyle=1;verticalAlign=middle;align=center;" vertex="1" parent="1">
          <mxGeometry x="235" y="360" width="45" height="20" as="geometry" />
        </mxCell>
        <mxCell id="_iQYgO6K-9xI_DNpRnXB-18" value="&lt;font style=&quot;font-size: 10px&quot;&gt;N&lt;/font&gt;" style="text;strokeColor=none;fillColor=none;html=1;fontSize=24;fontStyle=1;verticalAlign=middle;align=center;" vertex="1" parent="1">
          <mxGeometry x="70" y="160" width="45" height="20" as="geometry" />
        </mxCell>
        <mxCell id="_iQYgO6K-9xI_DNpRnXB-19" value="&lt;span style=&quot;font-size: 10px&quot;&gt;Y&lt;/span&gt;" style="text;strokeColor=none;fillColor=none;html=1;fontSize=24;fontStyle=1;verticalAlign=middle;align=center;" vertex="1" parent="1">
          <mxGeometry x="160" y="230" width="45" height="20" as="geometry" />
        </mxCell>
        <mxCell id="_iQYgO6K-9xI_DNpRnXB-20" value="&lt;span style=&quot;font-size: 10px&quot;&gt;Y&lt;/span&gt;" style="text;strokeColor=none;fillColor=none;html=1;fontSize=24;fontStyle=1;verticalAlign=middle;align=center;" vertex="1" parent="1">
          <mxGeometry x="162.5" y="412.5" width="45" height="20" as="geometry" />
        </mxCell>
        <mxCell id="_iQYgO6K-9xI_DNpRnXB-29" value="" style="edgeStyle=orthogonalEdgeStyle;rounded=0;orthogonalLoop=1;jettySize=auto;html=1;fontSize=10;entryX=0.5;entryY=0;entryDx=0;entryDy=0;" edge="1" parent="1" source="_iQYgO6K-9xI_DNpRnXB-21" target="_iQYgO6K-9xI_DNpRnXB-23">
          <mxGeometry relative="1" as="geometry">
            <Array as="points">
              <mxPoint x="410" y="485" />
              <mxPoint x="410" y="10" />
              <mxPoint x="590" y="10" />
            </Array>
          </mxGeometry>
        </mxCell>
        <mxCell id="_iQYgO6K-9xI_DNpRnXB-21" value="取第一个双字节数据，并写入SJA1000的相应位置" style="rounded=1;whiteSpace=wrap;html=1;fontSize=10;" vertex="1" parent="1">
          <mxGeometry x="100" y="460" width="120" height="50" as="geometry" />
        </mxCell>
        <mxCell id="_iQYgO6K-9xI_DNpRnXB-49" style="edgeStyle=orthogonalEdgeStyle;rounded=0;orthogonalLoop=1;jettySize=auto;html=1;exitX=0.5;exitY=1;exitDx=0;exitDy=0;entryX=0.5;entryY=0;entryDx=0;entryDy=0;fontSize=10;" edge="1" parent="1" source="_iQYgO6K-9xI_DNpRnXB-23" target="_iQYgO6K-9xI_DNpRnXB-24">
          <mxGeometry relative="1" as="geometry" />
        </mxCell>
        <mxCell id="_iQYgO6K-9xI_DNpRnXB-23" value="SJA1000进入工作模式,请求发送" style="rounded=1;whiteSpace=wrap;html=1;fontSize=10;" vertex="1" parent="1">
          <mxGeometry x="535" y="60" width="110" height="40" as="geometry" />
        </mxCell>
        <mxCell id="_iQYgO6K-9xI_DNpRnXB-30" value="" style="edgeStyle=orthogonalEdgeStyle;rounded=0;orthogonalLoop=1;jettySize=auto;html=1;fontSize=10;" edge="1" parent="1" source="_iQYgO6K-9xI_DNpRnXB-24" target="_iQYgO6K-9xI_DNpRnXB-25">
          <mxGeometry relative="1" as="geometry" />
        </mxCell>
        <mxCell id="_iQYgO6K-9xI_DNpRnXB-32" style="edgeStyle=orthogonalEdgeStyle;rounded=0;orthogonalLoop=1;jettySize=auto;html=1;exitX=0;exitY=0.5;exitDx=0;exitDy=0;fontSize=10;" edge="1" parent="1" source="_iQYgO6K-9xI_DNpRnXB-24">
          <mxGeometry relative="1" as="geometry">
            <mxPoint x="590" y="120" as="targetPoint" />
            <Array as="points">
              <mxPoint x="470" y="175" />
              <mxPoint x="470" y="120" />
              <mxPoint x="590" y="120" />
            </Array>
          </mxGeometry>
        </mxCell>
        <mxCell id="_iQYgO6K-9xI_DNpRnXB-24" value="发送完毕" style="rhombus;whiteSpace=wrap;html=1;" vertex="1" parent="1">
          <mxGeometry x="542.5" y="150" width="95" height="50" as="geometry" />
        </mxCell>
        <mxCell id="_iQYgO6K-9xI_DNpRnXB-31" value="" style="edgeStyle=orthogonalEdgeStyle;rounded=0;orthogonalLoop=1;jettySize=auto;html=1;fontSize=10;" edge="1" parent="1" source="_iQYgO6K-9xI_DNpRnXB-25" target="_iQYgO6K-9xI_DNpRnXB-26">
          <mxGeometry relative="1" as="geometry" />
        </mxCell>
        <mxCell id="_iQYgO6K-9xI_DNpRnXB-37" style="edgeStyle=orthogonalEdgeStyle;rounded=0;orthogonalLoop=1;jettySize=auto;html=1;exitX=1;exitY=0.5;exitDx=0;exitDy=0;entryX=0;entryY=0.5;entryDx=0;entryDy=0;fontSize=10;" edge="1" parent="1" source="_iQYgO6K-9xI_DNpRnXB-25" target="_iQYgO6K-9xI_DNpRnXB-36">
          <mxGeometry relative="1" as="geometry" />
        </mxCell>
        <mxCell id="_iQYgO6K-9xI_DNpRnXB-25" value="等待对方是否接受到" style="rhombus;whiteSpace=wrap;html=1;" vertex="1" parent="1">
          <mxGeometry x="525" y="230" width="130" height="60" as="geometry" />
        </mxCell>
        <mxCell id="_iQYgO6K-9xI_DNpRnXB-41" style="edgeStyle=orthogonalEdgeStyle;rounded=0;orthogonalLoop=1;jettySize=auto;html=1;exitX=0.5;exitY=1;exitDx=0;exitDy=0;entryX=0.5;entryY=0;entryDx=0;entryDy=0;fontSize=10;" edge="1" parent="1" source="_iQYgO6K-9xI_DNpRnXB-26" target="_iQYgO6K-9xI_DNpRnXB-27">
          <mxGeometry relative="1" as="geometry" />
        </mxCell>
        <mxCell id="_iQYgO6K-9xI_DNpRnXB-26" value="清空SJA1000发送及接受缓冲区,SJA1000进入复位模式" style="rounded=1;whiteSpace=wrap;html=1;fontSize=10;" vertex="1" parent="1">
          <mxGeometry x="530" y="330" width="120" height="60" as="geometry" />
        </mxCell>
        <mxCell id="_iQYgO6K-9xI_DNpRnXB-42" style="edgeStyle=orthogonalEdgeStyle;rounded=0;orthogonalLoop=1;jettySize=auto;html=1;exitX=1;exitY=0.5;exitDx=0;exitDy=0;entryX=0;entryY=0.5;entryDx=0;entryDy=0;fontSize=10;" edge="1" parent="1" source="_iQYgO6K-9xI_DNpRnXB-27" target="_iQYgO6K-9xI_DNpRnXB-28">
          <mxGeometry relative="1" as="geometry" />
        </mxCell>
        <mxCell id="_iQYgO6K-9xI_DNpRnXB-46" style="edgeStyle=orthogonalEdgeStyle;rounded=0;orthogonalLoop=1;jettySize=auto;html=1;exitX=0.5;exitY=1;exitDx=0;exitDy=0;fontSize=10;entryX=1;entryY=0.5;entryDx=0;entryDy=0;" edge="1" parent="1" source="_iQYgO6K-9xI_DNpRnXB-27" target="_iQYgO6K-9xI_DNpRnXB-8">
          <mxGeometry relative="1" as="geometry">
            <mxPoint x="490" y="280" as="targetPoint" />
            <Array as="points">
              <mxPoint x="590" y="500" />
              <mxPoint x="440" y="500" />
              <mxPoint x="440" y="225" />
            </Array>
          </mxGeometry>
        </mxCell>
        <mxCell id="_iQYgO6K-9xI_DNpRnXB-27" value="数值是否读取完？" style="rhombus;whiteSpace=wrap;html=1;" vertex="1" parent="1">
          <mxGeometry x="525" y="420" width="130" height="60" as="geometry" />
        </mxCell>
        <mxCell id="_iQYgO6K-9xI_DNpRnXB-44" style="edgeStyle=orthogonalEdgeStyle;rounded=0;orthogonalLoop=1;jettySize=auto;html=1;exitX=1;exitY=0.5;exitDx=0;exitDy=0;fontSize=10;" edge="1" parent="1" source="_iQYgO6K-9xI_DNpRnXB-28">
          <mxGeometry relative="1" as="geometry">
            <mxPoint x="590" y="30" as="targetPoint" />
            <Array as="points">
              <mxPoint x="838" y="450" />
              <mxPoint x="838" y="30" />
            </Array>
          </mxGeometry>
        </mxCell>
        <mxCell id="_iQYgO6K-9xI_DNpRnXB-28" value="取下一个双字节，并写入SJA1000" style="rounded=1;whiteSpace=wrap;html=1;fontSize=10;" vertex="1" parent="1">
          <mxGeometry x="707.5" y="430" width="110" height="40" as="geometry" />
        </mxCell>
        <mxCell id="_iQYgO6K-9xI_DNpRnXB-33" value="&lt;font style=&quot;font-size: 10px&quot;&gt;N&lt;/font&gt;" style="text;strokeColor=none;fillColor=none;html=1;fontSize=24;fontStyle=1;verticalAlign=middle;align=center;" vertex="1" parent="1">
          <mxGeometry x="480" y="150" width="45" height="20" as="geometry" />
        </mxCell>
        <mxCell id="_iQYgO6K-9xI_DNpRnXB-35" value="&lt;span style=&quot;font-size: 10px&quot;&gt;Y&lt;/span&gt;" style="text;strokeColor=none;fillColor=none;html=1;fontSize=24;fontStyle=1;verticalAlign=middle;align=center;" vertex="1" parent="1">
          <mxGeometry x="545" y="200" width="45" height="20" as="geometry" />
        </mxCell>
        <mxCell id="_iQYgO6K-9xI_DNpRnXB-39" style="edgeStyle=orthogonalEdgeStyle;rounded=0;orthogonalLoop=1;jettySize=auto;html=1;exitX=0.5;exitY=0;exitDx=0;exitDy=0;fontSize=10;" edge="1" parent="1" source="_iQYgO6K-9xI_DNpRnXB-36">
          <mxGeometry relative="1" as="geometry">
            <mxPoint x="590" y="130" as="targetPoint" />
            <Array as="points">
              <mxPoint x="751" y="130" />
            </Array>
          </mxGeometry>
        </mxCell>
        <mxCell id="_iQYgO6K-9xI_DNpRnXB-36" value="重新发送" style="rounded=1;whiteSpace=wrap;html=1;fontSize=10;" vertex="1" parent="1">
          <mxGeometry x="707.5" y="240" width="87" height="40" as="geometry" />
        </mxCell>
        <mxCell id="_iQYgO6K-9xI_DNpRnXB-38" value="&lt;font style=&quot;font-size: 10px&quot;&gt;N&lt;/font&gt;" style="text;strokeColor=none;fillColor=none;html=1;fontSize=24;fontStyle=1;verticalAlign=middle;align=center;" vertex="1" parent="1">
          <mxGeometry x="655" y="240" width="45" height="20" as="geometry" />
        </mxCell>
        <mxCell id="_iQYgO6K-9xI_DNpRnXB-40" value="&lt;span style=&quot;font-size: 10px&quot;&gt;Y&lt;/span&gt;" style="text;strokeColor=none;fillColor=none;html=1;fontSize=24;fontStyle=1;verticalAlign=middle;align=center;" vertex="1" parent="1">
          <mxGeometry x="542.5" y="290" width="45" height="20" as="geometry" />
        </mxCell>
        <mxCell id="_iQYgO6K-9xI_DNpRnXB-43" value="&lt;font style=&quot;font-size: 10px&quot;&gt;N&lt;/font&gt;" style="text;strokeColor=none;fillColor=none;html=1;fontSize=24;fontStyle=1;verticalAlign=middle;align=center;" vertex="1" parent="1">
          <mxGeometry x="655" y="420" width="45" height="20" as="geometry" />
        </mxCell>
        <mxCell id="_iQYgO6K-9xI_DNpRnXB-45" value="&lt;span style=&quot;font-size: 10px&quot;&gt;Y&lt;/span&gt;" style="text;strokeColor=none;fillColor=none;html=1;fontSize=24;fontStyle=1;verticalAlign=middle;align=center;" vertex="1" parent="1">
          <mxGeometry x="530" y="480" width="45" height="20" as="geometry" />
        </mxCell>
      </root>
    </mxGraphModel>
  </diagram>
</mxfile>
